<svg width="193" height="78" xmlns="http://www.w3.org/2000/svg" xmlns:xlink="http://www.w3.org/1999/xlink">
    <defs>
        <path id="a" d="M0 0h192.502v35.942H0z"/>
    </defs>
    <g fill="none" fill-rule="evenodd">
        <g transform="translate(.207 42.058)">
            <mask id="b" fill="#fff">
                <use xlink:href="#a"/>
            </mask>
            <path d="M7.415 15.466h-.097V.578H0v34.786h7.318V17.537h.097l8.384 17.827h8.238l-9.789-19.176 9.79-15.61h-8.045L7.415 15.466zM37.17 30.739c-4.12 0-4.653-3.855-4.653-12.768s.533-12.768 4.653-12.768c4.12 0 4.652 3.855 4.652 12.768S41.29 30.74 37.171 30.74zm0 5.203c12.067 0 12.067-8.865 12.067-17.97 0-9.203 0-17.972-12.067-17.972S25.104 8.769 25.104 17.971c0 9.106 0 17.971 12.067 17.971zm22.923-.578V8.528h.096l6.398 26.836h6.978l6.736-26.836h.097v26.836h7.124V.578H76.135l-5.816 23.656h-.097L64.746.578H52.97v34.786h7.124zM98.91 5.926h3.683c3.296 0 4.071 2.41 4.071 5.252 0 2.312-1.502 4.673-3.683 4.673h-4.07V5.926zm-7.318 29.438h7.318V21.199h5.428c8.578 0 9.741-6.263 9.741-10.214 0-6.36-2.617-10.407-9.305-10.407H91.593v34.786zm27.1 0 1.987-7.709h9.984l1.938 7.709h7.706l-9.5-34.786h-9.643l-9.693 34.786h7.221zm10.42-13.057h-6.979l3.344-15.032h.097l3.538 15.032zm21.614-6.841h-.097V.578h-7.318v34.786h7.318V17.537h.097l8.384 17.827h8.239l-9.79-19.176 9.79-15.61h-8.045l-8.578 14.888zM168.901.578V6.36h8.141v29.004h7.318V6.36h8.142V.578H168.9z" fill="#FFF" mask="url(#b)"/>
        </g>
        <path d="M14.175 17.2c0-3.715-1.863-4.994-4.83-6.774l-1.516-.905C6.093 8.49 4.578 7.523 4.578 5.712c0-1.592.946-2.653 2.62-2.653 2.116 0 2.494 1.374 2.494 3.028v.562h4.198v-.874C13.89 1.499 11.555 0 7.387 0 3.283 0 .315 1.654.315 6.055c0 3.528 1.958 4.933 4.484 6.494l1.736 1.061c1.957 1.187 3.378 1.998 3.378 3.933 0 1.811-1.01 2.841-2.841 2.841-2.526 0-2.779-1.935-2.779-3.902v-.28H0v.249c0 5.057 1.83 6.992 7.04 6.992 4.2 0 7.135-1.592 7.135-6.243zm13.417-2.186c0-4.588-.126-8.115-4.294-8.115-1.515 0-3.03.624-3.977 2.029l-.032-1.654h-3.82c.031.218.094 3.464.094 3.683V29h3.915v-7.367c.79 1.248 1.989 1.685 3.505 1.685 4.198 0 4.609-3.87 4.609-8.304zm-3.946-.155c0 2.372-.158 5.962-2.02 5.962-1.895 0-2.211-2.56-2.211-5.463 0-2.81.095-5.962 2.21-5.962 1.863 0 2.02 2.497 2.02 5.463zm16.637.718c0-4.558 0-8.678-5.557-8.678-5.461 0-6.124 4.09-6.124 8.397 0 4.401.347 8.084 5.904 8.084 3.851 0 5.524-1.716 5.682-5.587h-3.725c0 1.467-.285 3.059-1.957 3.059-1.516 0-2.021-1.186-2.021-3.87v-1.405h7.798zm-3.852-2.154h-3.946c0-.75.032-1.311.126-1.936.19-1.248.694-2.06 1.957-2.06 1.2 0 1.61.78 1.769 1.842.126.749.094 1.436.094 2.154zm17.806 9.583-4.42-9.021 3.915-6.711h-4.263l-3.662 6.836 4.073 8.896h4.357zm-12.44 0h3.915V.436h-3.914v22.57zm20.616.031v-2.653c-.38.031-.726.094-1.074.094-1.452 0-1.641-.718-1.641-2.154V9.802h2.494V7.274h-2.494V2.996L55.783 4.59v2.685h-2.115v2.528h2.115v9.083c0 3.34 1.041 4.309 4.42 4.309.757 0 1.484-.032 2.21-.157zm9.313-12.58V6.993h-.19c-1.894 0-3.157.593-4.04 2.31l-.032-2.028h-3.757c0 .186.063 2.652.063 2.84v12.892h3.914v-8.803c0-2.341.821-3.808 3.379-3.808.22 0 .442.031.663.063zm12.659 12.55c-.063-.906-.127-1.593-.127-2.592V7.274h-3.914V17.48c0 1.373-.442 3.34-2.147 3.34-1.799 0-1.83-1.686-1.83-3.028V7.273h-3.915v11.612c0 2.966 1.23 4.433 4.135 4.433 1.61 0 2.905-.656 3.788-1.997l.032 1.685h3.978zm20.615 0V12.142c0-3.34-.947-5.244-4.01-5.244-1.736 0-2.904.843-3.946 2.185-.631-1.28-1.546-2.185-3.535-2.185-1.61 0-3 .843-3.852 2.154l-.031-1.78h-3.884c.095.718.127 1.436.127 2.154v13.58h3.915v-10.02c0-1.53.315-3.529 2.051-3.529 1.516 0 1.642 1.405 1.642 2.654v10.894h3.915v-10.02c0-1.373.315-3.528 2.02-3.528 1.39 0 1.673 1.124 1.673 2.748v10.8H105z" fill="#FFF"/>
        <path d="M48.28 34.905c-.02-.304-.04-.617-.04-.92v-5.938h-.557v2.532c-.215-.35-.5-.559-1.107-.559-1.351 0-1.576 1.328-1.576 2.38 0 1.13.088 2.581 1.576 2.581.559 0 .862-.199 1.156-.644l.01.568h.537zm-.568-2.353c0 .94-.03 1.965-1.126 1.965-.873 0-1.02-.873-1.02-2.106 0-.76.05-1.936 1.068-1.936 1 0 1.078.92 1.078 2.078zm4.901.048v-.625c0-1.111-.303-1.955-1.566-1.955-1.674 0-1.684 1.49-1.684 2.76 0 1.215.225 2.22 1.625 2.22 1.205 0 1.557-.682 1.596-1.555h-.557c-.03.616-.196 1.12-1.039 1.12-.882 0-1.048-.627-1.048-1.69V32.6h2.673zm-.577-.436H49.95c0-.208.01-.417.03-.626.068-.607.343-1.082 1.077-1.082.697 0 .932.54.971 1.12.01.19.01.465.01.588zm3.546-1.594v-.54c-.04-.01-.09-.01-.118-.01-.519 0-.97.284-1.234.74l-.01-.635h-.537c.02.285.04.579.04.873v3.907h.556v-3.11c0-.694.392-1.235 1.155-1.235.05 0 .098 0 .148.01zm9.85-2.523h-.577l-1.44 6.232-1.35-6.232h-.745L59.9 34.28l-1.38-6.232h-.627l1.626 6.858h.744l1.4-6.25 1.351 6.25h.744l1.675-6.858zm.686.825h.674v-.72h-.674v.72zm.058 6.033h.557v-4.78h-.557v4.78zm4.378-1.27c0-.74-.517-1.082-1.046-1.367l-.372-.209c-.383-.209-.686-.445-.686-.863 0-.427.264-.73.734-.73.56 0 .784.303.784.825v.114h.557v-.047c0-.883-.39-1.338-1.302-1.338-.784 0-1.33.407-1.33 1.195 0 .616.351.95.85 1.214l.393.209c.616.323.852.55.852 1.101 0 .531-.304.826-.852.826-.588 0-.824-.352-.824-.968v-.114h-.557v.114c0 .854.372 1.403 1.38 1.403.931 0 1.42-.464 1.42-1.365zm3.683 0c0-.74-.518-1.082-1.048-1.367l-.372-.209c-.382-.209-.686-.445-.686-.863 0-.427.265-.73.735-.73.56 0 .784.303.784.825v.114h.558v-.047c0-.883-.391-1.338-1.302-1.338-.784 0-1.332.407-1.332 1.195 0 .616.352.95.85 1.214l.393.209c.618.323.853.55.853 1.101 0 .531-.304.826-.853.826-.587 0-.822-.352-.822-.968v-.114h-.558v.114c0 .854.372 1.403 1.38 1.403.931 0 1.42-.464 1.42-1.365zm4.177-1.035v-.625c0-1.111-.302-1.955-1.566-1.955-1.674 0-1.684 1.49-1.684 2.76 0 1.215.225 2.22 1.625 2.22 1.205 0 1.557-.682 1.596-1.555h-.557c-.03.616-.196 1.12-1.039 1.12-.882 0-1.048-.627-1.048-1.69V32.6h2.673zm-.576-.436h-2.087c0-.208.01-.417.029-.626.069-.607.343-1.082 1.078-1.082.695 0 .93.54.97 1.12.01.19.01.465.01.588zm4.817 2.741v-3.377c0-.864-.332-1.508-1.321-1.508-.588 0-1.01.294-1.303.758l-.01-.653h-.537c.03.389.039.797.039 1.186v3.594h.557v-2.808c0-.76.235-1.603 1.146-1.603.892 0 .872.797.872 1.432v2.98h.557zm3.822-1.27c0-.74-.518-1.082-1.047-1.367l-.372-.209c-.382-.209-.686-.445-.686-.863 0-.427.265-.73.735-.73.558 0 .784.303.784.825v.114h.557v-.047c0-.883-.39-1.338-1.302-1.338-.784 0-1.33.407-1.33 1.195 0 .616.35.95.85 1.214l.392.209c.618.323.853.55.853 1.101 0 .531-.305.826-.853.826-.588 0-.824-.352-.824-.968v-.114h-.556v.114c0 .854.37 1.403 1.38 1.403.93 0 1.42-.464 1.42-1.365zM90.4 31.48c-.02-.93-.293-1.46-1.38-1.46-1.576 0-1.615 1.327-1.615 2.503 0 1.452.117 2.476 1.596 2.476.998 0 1.39-.587 1.39-1.489h-.558c-.02.598-.146 1.054-.862 1.054-.706 0-.98-.39-.98-2.031 0-.987.03-2.078 1.01-2.078.686 0 .843.436.843 1.025h.556zm4.13 3.424v-3.367c0-.864-.313-1.518-1.322-1.518-.568 0-.96.265-1.254.692v-2.665h-.557v6.858h.557v-2.837c0-.825.294-1.574 1.147-1.574.891 0 .871.787.871 1.422v2.99h.558zm4.13 0c-.02-.503-.03-.996-.03-1.5v-1.8c0-1.035-.283-1.585-1.429-1.585-.843 0-1.536.37-1.536 1.224v.029h.567v-.038c0-.542.48-.77.95-.77.892 0 .892.675.892 1.348v.181c-1.215.01-2.625.104-2.625 1.593 0 .797.43 1.394 1.301 1.394.658 0 1-.227 1.372-.739v.663h.538zm-.586-1.897c0 .721-.265 1.528-1.196 1.528-.607 0-.833-.484-.833-1.006 0-1.006 1.01-1.1 1.842-1.1h.187v.578zm3.585-2.438v-.445h-.95v-.778c0-.637.158-.865.754-.865.07 0 .128 0 .196.01v-.473a2.405 2.405 0 0 0-.284-.019c-1.164 0-1.223.767-1.223 1.602v.523h-.754v.445h.754v4.335h.558V30.57h.95zM104 34.905v-.483a2.355 2.355 0 0 1-.362.038c-.402 0-.578-.076-.578-.674V30.57h.94v-.445h-.94v-1.167l-.557.247v.92h-.764v.445h.764v3.254c0 .74.127 1.119.998 1.119.166 0 .332-.019.499-.038z" fill="#FFFEFE"/>
    </g>
</svg>
